<?xml version="1.0" standalone="no"?>
<!DOCTYPE svg PUBLIC "-//W3C//DTD SVG 20010904//EN"
 "http://www.w3.org/TR/2001/REC-SVG-20010904/DTD/svg10.dtd">
<svg version="1.0" xmlns="http://www.w3.org/2000/svg"
 width="500.000000pt" height="500.000000pt" viewBox="0 0 500.000000 500.000000"
 preserveAspectRatio="xMidYMid meet">
<metadata>
Created by potrace 1.16, written by Peter Selinger 2001-2019
</metadata>
<g transform="translate(0.000000,500.000000) scale(0.100000,-0.100000)"
fill="#000000" stroke="none">
<path d="M1375 3222 c-2 -3 -59 -4 -125 -3 l-121 1 6 -77 c3 -43 7 -171 8
-286 l2 -207 -22 0 c-13 0 -23 -3 -23 -7 0 -5 -11 -8 -25 -8 l-25 0 3 162 c1
119 -1 165 -10 174 -7 7 -13 23 -13 36 0 12 -9 37 -20 55 -11 18 -20 40 -20
49 0 9 -7 19 -15 23 -8 3 -19 16 -24 29 -11 28 -91 57 -158 57 l-44 0 5 -82
c3 -46 8 -154 11 -240 2 -86 5 -160 6 -165 1 -4 1 -38 0 -75 -1 -66 -2 -68
-27 -68 l-25 0 2 -327 c2 -318 10 -414 30 -382 5 8 9 9 9 4 0 -7 126 -11 384
-10 226 0 382 4 378 9 -3 5 0 6 7 2 13 -8 145 -18 221 -16 25 0 70 0 100 0 30
0 66 2 80 5 l25 5 -3 438 -2 437 -23 -2 c-12 0 -46 -4 -74 -7 l-53 -6 3 28 c2
15 6 32 9 37 3 6 9 31 13 58 4 26 11 50 16 53 5 3 9 16 9 30 0 14 7 36 16 49
9 14 14 31 11 39 -3 8 -2 16 4 18 5 2 12 16 15 31 2 16 13 41 23 55 11 15 22
39 25 55 l6 27 -195 0 c-176 -1 -196 -3 -204 -19 -6 -10 -10 -103 -11 -207 -2
-310 1 -282 -30 -289 -15 -3 -31 -5 -36 -4 -5 1 -20 -1 -34 -4 -14 -4 -38 -9
-54 -11 l-28 -5 5 92 c11 165 33 261 88 375 23 46 20 72 -8 73 -10 0 -28 2
-41 3 -12 2 -24 0 -27 -2z"/>
<path d="M2419 3085 c-5 -4 -37 -12 -61 -14 -4 -1 -23 -16 -42 -33 -26 -24
-38 -45 -44 -78 -14 -84 -1 -103 128 -194 57 -40 75 -58 75 -75 0 -50 -77 -54
-95 -6 -9 23 -15 25 -66 25 l-57 0 6 -46 c2 -26 9 -49 13 -53 5 -3 14 -15 20
-26 14 -25 125 -57 169 -49 35 6 105 45 126 70 9 11 14 41 14 85 0 61 -3 71
-28 97 -16 16 -47 39 -70 51 -56 29 -107 76 -107 99 0 44 54 57 72 17 13 -28
60 -46 102 -38 20 4 26 12 27 32 3 65 -11 90 -65 118 -29 15 -108 27 -117 18z"/>
<path d="M3688 3073 c-27 -7 -48 -18 -48 -24 0 -5 -10 -14 -23 -20 -45 -20
-62 -72 -63 -187 -1 -120 9 -195 25 -200 6 -2 9 -8 6 -13 -4 -5 3 -18 14 -30
11 -12 18 -27 14 -32 -3 -6 -1 -7 5 -3 6 4 28 -1 49 -10 45 -19 121 -19 167 0
39 16 88 67 93 95 1 11 3 24 4 28 6 37 -1 43 -56 43 -53 0 -57 -2 -76 -35 -14
-23 -28 -35 -42 -35 -53 1 -64 31 -65 176 0 120 0 122 24 133 51 23 93 4 94
-41 0 -19 0 -20 60 -20 22 0 45 1 51 1 6 1 9 21 7 54 -4 51 -5 53 -59 89 -64
43 -114 51 -181 31z"/>
<path d="M2635 3070 c-2 -3 -5 -25 -6 -50 -4 -45 -4 -45 31 -48 19 -1 45 -5
58 -7 l22 -5 -2 -200 c-1 -110 1 -202 5 -206 8 -9 88 -10 108 -2 15 6 17 30
17 202 0 107 3 199 6 204 3 6 22 10 42 10 47 0 56 10 52 63 l-3 44 -163 0
c-90 0 -165 -2 -167 -5z"/>
<path d="M3025 3068 c-3 -7 -6 -123 -8 -257 -2 -196 0 -246 11 -257 20 -21 99
-18 110 4 4 9 7 96 5 192 -1 96 -2 210 -3 253 l0 77 -55 0 c-35 0 -57 -5 -60
-12z"/>
<path d="M3194 3071 c-9 -10 -3 -90 8 -97 6 -4 28 -6 49 -6 l39 2 -1 -206 c-1
-112 1 -207 4 -210 10 -10 84 -14 107 -6 22 8 22 10 24 213 l1 204 53 3 c41 2
52 7 53 20 0 9 2 24 3 32 2 8 0 25 -5 37 -8 21 -12 21 -169 20 -89 -1 -163 -3
-166 -6z"/>
<path d="M3996 3041 c-8 -45 -8 -54 -7 -293 l1 -198 38 -1 c53 -2 84 0 90 5 2
3 4 48 3 101 l-2 95 56 0 55 0 0 -82 c0 -116 4 -125 51 -130 21 -2 39 0 39 5
0 4 4 6 8 3 4 -2 14 -1 21 3 9 6 12 68 12 260 -1 139 -3 257 -6 262 -4 5 -33
9 -66 9 l-59 0 0 -100 0 -100 -56 0 -56 0 2 38 c1 20 2 65 1 100 l-1 62 -59
-1 -60 -2 -5 -36z"/>
<path d="M2261 2313 c0 -49 5 -104 12 -123 22 -64 101 -80 155 -31 32 30 32
30 32 130 0 56 -4 103 -10 106 -6 3 -20 3 -31 0 -17 -6 -20 -14 -19 -53 2 -26
2 -70 1 -98 -1 -46 -4 -53 -25 -58 -51 -13 -56 -2 -56 110 l0 104 -30 0 -30 0
1 -87z"/>
<path d="M2550 2377 c-19 -13 -34 -29 -32 -36 1 -6 -3 -14 -10 -16 -19 -7 -14
-94 6 -137 25 -52 74 -68 154 -52 24 5 32 12 33 28 0 11 2 35 4 51 5 55 0 60
-55 56 -46 -3 -51 -5 -48 -25 2 -13 11 -22 26 -24 29 -4 26 -32 -5 -43 -49
-18 -83 62 -59 138 10 32 54 39 81 13 28 -27 66 -20 58 10 -8 29 -35 48 -78
55 -33 5 -47 2 -75 -18z"/>
<path d="M2759 2392 c-1 -4 -3 -62 -4 -129 -1 -107 1 -122 16 -126 19 -5 41 5
38 19 -1 5 -1 24 0 42 1 44 24 41 52 -5 31 -52 47 -65 71 -52 18 9 17 11 -7
43 -30 39 -31 53 -8 79 24 26 25 92 2 113 -19 17 -158 31 -160 16z"/>
<path d="M3533 2365 c-41 -17 -54 -43 -54 -109 -1 -87 46 -133 117 -114 43 11
59 54 55 150 -1 30 -36 74 -66 82 -11 3 -34 -1 -52 -9z m65 -35 c17 -16 22
-32 22 -75 0 -58 -16 -85 -51 -85 -58 0 -82 107 -34 155 29 30 35 31 63 5z"/>
<path d="M3883 2372 l-33 -3 0 -115 0 -115 73 3 c55 2 72 6 72 18 0 11 -12 13
-52 11 -47 -2 -53 0 -53 17 0 11 -3 27 -6 36 -5 12 5 15 47 18 71 4 80 28 10
28 l-51 0 0 34 c0 35 0 35 52 38 64 4 76 25 16 29 -24 2 -58 3 -75 1z"/>
<path d="M4066 2356 c-15 -13 -26 -28 -26 -35 0 -6 -4 -11 -8 -11 -5 0 -8 -25
-6 -55 4 -77 32 -115 84 -115 32 0 43 6 60 30 19 27 20 30 4 30 -10 0 -25 -7
-35 -16 -28 -25 -65 -11 -73 27 -9 46 -7 88 4 110 15 26 66 26 75 -1 3 -11 14
-20 24 -20 33 0 13 50 -25 66 -44 19 -49 18 -78 -10z"/>
<path d="M3107 2363 c-2 -4 -5 -56 -6 -115 -1 -101 0 -108 18 -108 16 0 20 8
23 43 3 41 4 42 43 45 57 5 77 27 72 76 -3 22 -12 45 -20 51 -19 13 -123 20
-130 8z"/>
<path d="M3295 2362 c-3 -3 -5 -54 -5 -114 0 -99 2 -109 18 -106 12 2 19 16
22 43 7 58 34 58 62 0 14 -29 28 -45 41 -45 14 0 17 5 11 23 -4 12 -13 31 -20
41 -11 16 -10 23 6 43 22 28 18 91 -7 110 -16 12 -117 16 -128 5z"/>
</g>
</svg>
